<?xml version="1.0" encoding="UTF-8" standalone="no"?>
<!-- Created with Inkscape (http://www.inkscape.org/) -->

<svg
   xmlns:dc="http://purl.org/dc/elements/1.1/"
   xmlns:cc="http://creativecommons.org/ns#"
   xmlns:rdf="http://www.w3.org/1999/02/22-rdf-syntax-ns#"
   xmlns:svg="http://www.w3.org/2000/svg"
   xmlns="http://www.w3.org/2000/svg"
   xmlns:sodipodi="http://sodipodi.sourceforge.net/DTD/sodipodi-0.dtd"
   xmlns:inkscape="http://www.inkscape.org/namespaces/inkscape"
   id="svg2"
   version="1.1"
   inkscape:version="0.92.2 2405546, 2018-03-11"
   width="185.17194"
   height="106.89132"
   viewBox="0 0 185.17194 106.89132"
   sodipodi:docname="logo.svg"
   inkscape:export-filename="/home/farm/Documents/raccon/others/img/logo/logo.png"
   inkscape:export-xdpi="96"
   inkscape:export-ydpi="96">
  <metadata
     id="metadata8">
    <rdf:RDF>
      <cc:Work
         rdf:about="">
        <dc:format>image/svg+xml</dc:format>
        <dc:type
           rdf:resource="http://purl.org/dc/dcmitype/StillImage" />
        <dc:title />
      </cc:Work>
    </rdf:RDF>
  </metadata>
  <defs
     id="defs6">
    <clipPath
       clipPathUnits="userSpaceOnUse"
       id="clipPath820">
      <path
         style="fill:none;stroke:#000000;stroke-width:1px;stroke-linecap:butt;stroke-linejoin:miter;stroke-opacity:1"
         d="m -420.0874,149.79386 124.83448,120.96134 c 25.64388,-2.51998 48.32738,-6.53633 73.88772,-19.9616 18.18836,-9.90959 39.31473,-23.9033 53.33024,-43.20048 12.71813,-14.63776 20.13322,-32.30584 27.40996,-50.05297 5.66979,-9.65578 6.09107,-20.62369 8.93803,-30.98517 l 0.59587,-11.3215 -52.43644,-68.524895 -75.07945,-1.191737 -17.87606,19.663666 75.67531,86.400956 -10.12976,5.95868 -85.20922,-100.701797 -94.74312,-15.492585 -39.32733,36.943856 z"
         id="path822"
         inkscape:connector-curvature="0"
         sodipodi:nodetypes="cccccccccccccccc" />
    </clipPath>
    <clipPath
       clipPathUnits="userSpaceOnUse"
       id="clipPath927">
      <g
         id="g947">
        <path
           inkscape:connector-curvature="0"
           id="path929"
           d="m -874.88415,34.344311 0.14897,9.682866 2.38347,4.469014 4.17108,2.90486 0.22345,-6.703522 7.89526,-0.148967 -0.67035,-3.053827 -2.60692,-3.277278 -3.05383,-1.787606 z"
           style="fill:none;stroke:#000000;stroke-width:1px;stroke-linecap:butt;stroke-linejoin:miter;stroke-opacity:1" />
        <path
           inkscape:connector-curvature="0"
           id="path931"
           d="m -818.29398,36.989505 -9.68287,0.14897 -4.46901,2.38347 -2.90486,4.17108 6.70352,0.22345 0.14896,7.89526 3.05383,-0.67035 3.27728,-2.60692 1.78761,-3.05383 z"
           style="fill:none;stroke:#000000;stroke-width:1px;stroke-linecap:butt;stroke-linejoin:miter;stroke-opacity:1" />
        <g
           id="g937">
          <path
             style="fill:none;stroke:#000000;stroke-width:1px;stroke-linecap:butt;stroke-linejoin:miter;stroke-opacity:1"
             d="m -857.97638,55.199714 0.14897,4.469015 -4.61798,-4.022114 v -5.064883 l 5.4373,-0.07448 3.87315,4.320048 z"
             id="path933"
             inkscape:connector-curvature="0" />
          <path
             style="fill:none;stroke:#000000;stroke-width:1px;stroke-linecap:butt;stroke-linejoin:miter;stroke-opacity:1"
             d="m -849.85766,62.946006 0.0745,-9.086997 -6.85249,-6.778006 -8.78906,0.148967 -0.22345,8.93803 6.62903,6.703523 z"
             id="path935"
             inkscape:connector-curvature="0" />
        </g>
        <g
           id="g943"
           transform="rotate(90,-848.29249,64.399148)">
          <path
             style="fill:none;stroke:#000000;stroke-width:1px;stroke-linecap:butt;stroke-linejoin:miter;stroke-opacity:1"
             d="m -857.97638,55.199714 0.14897,4.469015 -4.61798,-4.022114 v -5.064883 l 5.4373,-0.07448 3.87315,4.320048 z"
             id="path939"
             inkscape:connector-curvature="0" />
          <path
             style="fill:none;stroke:#000000;stroke-width:1px;stroke-linecap:butt;stroke-linejoin:miter;stroke-opacity:1"
             d="m -849.85766,62.946006 0.0745,-9.086997 -6.85249,-6.778006 -8.78906,0.148967 -0.22345,8.93803 6.62903,6.703523 z"
             id="path941"
             inkscape:connector-curvature="0" />
        </g>
        <path
           inkscape:connector-curvature="0"
           id="path945"
           d="m -852.01769,66.223284 h 7.52284 v 3.12831 l -3.72418,2.457958 -3.79866,-2.681409 z"
           style="fill:none;stroke:#000000;stroke-width:1px;stroke-linecap:butt;stroke-linejoin:miter;stroke-opacity:1" />
      </g>
    </clipPath>
    <clipPath
       clipPathUnits="userSpaceOnUse"
       id="clipPath953">
      <path
         style="fill:none;stroke:#000000;stroke-width:1px;stroke-linecap:butt;stroke-linejoin:miter;stroke-opacity:1"
         d="m -403.07725,95.100241 142.68742,176.957439 c 30.12854,-4.6401 50.45588,-15.70711 70.72435,-27.44422 22.35536,-12.94559 37.0658,-31.94786 48.53471,-49.48258 26.37828,-40.32951 23.40187,-65.96268 27.78957,-98.77313 l -37.76829,-54.89117 -48.60698,61.63265 -11.19165,-13.728691 -73.0769,48.700141 -13.89826,-17.97388 -47.9102,-43.3968 -43.10589,-6.044158 z"
         id="path955"
         inkscape:connector-curvature="0"
         sodipodi:nodetypes="ccssccccccccc" />
    </clipPath>
    <clipPath
       clipPathUnits="userSpaceOnUse"
       id="clipPath845">
      <path
         style="fill:none;stroke:#000000;stroke-width:1px;stroke-linecap:butt;stroke-linejoin:miter;stroke-opacity:1"
         d="m -614.61065,91.525031 62.83628,63.333719 -0.69197,3.67095 32.74004,27.04738 17.60016,14.61355 67.64443,59.68558 c 24.2898,-10.87986 45.68303,-27.86991 62.18999,-43.28144 22.65041,-21.14727 38.23494,-56.20775 44.00516,-87.30534 3.75375,-20.23018 1.16681,-34.408726 1.15467,-56.958493 l -35.511,-34.439567 -79.50294,31.245688 19.70431,16.658271 -68.85218,49.399751 -1.52639,-9.43056 -67.63135,-66.873883 c -29.94947,-5.199246 -45.9427,15.144098 -54.15921,32.634394 z"
         id="path847"
         inkscape:connector-curvature="0"
         sodipodi:nodetypes="ccccccsscccccccc" />
    </clipPath>
    <clipPath
       clipPathUnits="userSpaceOnUse"
       id="clipPath938">
      <g
         id="g944">
        <path
           inkscape:connector-curvature="0"
           id="path940"
           d="m -933.69556,-142.5436 -108.70644,116.290606 63.20142,60.673358 96.90883,-99.436892 32.02205,31.179364 -49.71844,53.089188 18.53908,16.853711 67.41484,-73.313641 -68.25753,-62.358729 -96.06615,100.2795778 -31.1794,-30.3366788 91.01007,-96.066154 z"
           style="fill:none;stroke:#000000;stroke-width:1px;stroke-linecap:butt;stroke-linejoin:miter;stroke-opacity:1" />
        <path
           inkscape:connector-curvature="0"
           id="path942"
           d="m -926.95408,82.137432 14.53632,-15.273675 -15.48434,-15.589683 -15.37901,15.484347 z"
           style="fill:none;stroke:#000000;stroke-width:1px;stroke-linecap:butt;stroke-linejoin:miter;stroke-opacity:1" />
      </g>
    </clipPath>
    <clipPath
       clipPathUnits="userSpaceOnUse"
       id="clipPath956">
      <g
         id="g962">
        <path
           inkscape:connector-curvature="0"
           id="path958"
           d="m -981.39567,-10.494805 86.69889,-92.359645 -16.38639,-16.08845 -86.40095,93.253444 z"
           style="fill:none;stroke:#000000;stroke-width:1px;stroke-linecap:butt;stroke-linejoin:miter;stroke-opacity:1" />
        <path
           inkscape:connector-curvature="0"
           id="path960"
           d="m -862.22194,-35.521288 -16.08845,-16.982257 -70.61044,74.781516 64.05588,61.076537 19.66367,-20.557469 -46.47776,-45.583952 z"
           style="fill:none;stroke:#000000;stroke-width:1px;stroke-linecap:butt;stroke-linejoin:miter;stroke-opacity:1" />
      </g>
    </clipPath>
    <clipPath
       clipPathUnits="userSpaceOnUse"
       id="clipPath1008">
      <path
         style="fill:none;stroke:#000000;stroke-width:1px;stroke-linecap:butt;stroke-linejoin:miter;stroke-opacity:1"
         d="m -896.08599,-27.55576 141.71628,166.02812 c 30.67563,-4.70128 60.29963,-17.71904 83.31641,-38.14111 10.99899,-9.759062 23.26059,-22.208961 31.84171,-35.250154 6.96832,-10.590122 10.4879,-21.229588 17.12472,-33.865095 l -45.63134,-69.726673 -72.94652,-46.467714 -7.71604,-19.178834 -15.52284,-5.25178 -8.30761,-17.58366 -21.48582,15.79605 z"
         id="path1010"
         inkscape:connector-curvature="0"
         sodipodi:nodetypes="ccsscccccccc" />
    </clipPath>
  </defs>
  <sodipodi:namedview
     pagecolor="#ffffff"
     bordercolor="#666666"
     borderopacity="1"
     objecttolerance="10"
     gridtolerance="10"
     guidetolerance="10"
     inkscape:pageopacity="0"
     inkscape:pageshadow="2"
     inkscape:window-width="1366"
     inkscape:window-height="736"
     id="namedview4"
     showgrid="false"
     fit-margin-top="0"
     fit-margin-left="0"
     fit-margin-right="0"
     fit-margin-bottom="0"
     inkscape:zoom="0.35355339"
     inkscape:cx="-1025.6589"
     inkscape:cy="-81.997873"
     inkscape:window-x="0"
     inkscape:window-y="0"
     inkscape:window-maximized="1"
     inkscape:current-layer="svg2" />
  <g
     id="g1017"
     inkscape:export-filename="/home/farm/Documents/raccon/others/img/logo/logo.png"
     inkscape:export-xdpi="96"
     inkscape:export-ydpi="96">
    <circle
       r="171.47211"
       cy="-30.897312"
       cx="-781.9021"
       id="path812"
       style="opacity:1;fill:#f4a51e;fill-opacity:1;stroke:#000000;stroke-width:0;stroke-linejoin:round;stroke-miterlimit:4;stroke-dasharray:none;stroke-opacity:1" />
    <rect
       clip-path="url(#clipPath1008)"
       y="-183.89259"
       x="-911.67908"
       height="386.12289"
       width="462.39407"
       id="rect1004"
       style="opacity:0.253;fill:#000000;fill-opacity:1;stroke:#000000;stroke-width:0.37795275;stroke-linejoin:round;stroke-miterlimit:4;stroke-dasharray:none;stroke-opacity:1" />
    <g
       transform="translate(146.31601,-1.3027662)"
       id="g966">
      <rect
         style="opacity:1;fill:#1a3e59;fill-opacity:1;stroke:#000000;stroke-width:0.37795275;stroke-linejoin:round;stroke-miterlimit:4;stroke-dasharray:none;stroke-opacity:1"
         id="rect925"
         width="288.40042"
         height="275.29132"
         x="-1067.0398"
         y="-154.07237"
         clip-path="url(#clipPath938)" />
      <rect
         style="opacity:1;fill:#565555;fill-opacity:1;stroke:#000000;stroke-width:0.37795275;stroke-linejoin:round;stroke-miterlimit:4;stroke-dasharray:none;stroke-opacity:1"
         id="rect946"
         width="316.00708"
         height="282.29965"
         x="-1085.3789"
         y="-171.1949"
         clip-path="url(#clipPath956)" />
    </g>
  </g>
</svg>
